<svg width="24" height="24" viewBox="0 0 24 24" fill="currentColor" xmlns="http://www.w3.org/2000/svg">
<path fill-rule="evenodd" clip-rule="evenodd" d="M12 22C17.5228 22 22 17.5228 22 12C22 6.47715 17.5228 2 12 2C6.47715 2 2 6.47715 2 12C2 17.5228 6.47715 22 12 22ZM13 9C13 9.55228 12.5523 10 12 10C11.4477 10 11 9.55228 11 9C11 8.44772 11.4477 8 12 8C12.5523 8 13 8.44772 13 9ZM11 13C11 12.4477 11.4477 12 12 12C12.5523 12 13 12.4477 13 13V16C13 16.5523 12.5523 17 12 17C11.4477 17 11 16.5523 11 16V13Z" fill="currentColor"/>
</svg>
