<svg width="24" height="24" viewBox="0 0 24 24" fill="currentColor" xmlns="http://www.w3.org/2000/svg">
<path d="M9.99999 13.6L15.9 7.7C16.0833 7.51667 16.3167 7.425 16.6 7.425C16.8833 7.425 17.1167 7.51667 17.3 7.7C17.4833 7.88334 17.575 8.11667 17.575 8.4C17.575 8.68334 17.4833 8.91667 17.3 9.1L10.7 15.7C10.5 15.9 10.2667 16 9.99999 16C9.73332 16 9.49999 15.9 9.29999 15.7L6.69999 13.1C6.51665 12.9167 6.42499 12.6833 6.42499 12.4C6.42499 12.1167 6.51665 11.8833 6.69999 11.7C6.88332 11.5167 7.11665 11.425 7.39999 11.425C7.68332 11.425 7.91665 11.5167 8.09999 11.7L9.99999 13.6Z" fill="currentColor"/>
</svg>
